<svg xmlns="http://www.w3.org/2000/svg" viewBox="0 0 100 100" fill="currentColor">
  <!-- Sword (left) -->
  <rect x="18" y="6" width="8" height="52" rx="3"/>
  <rect x="12" y="56" width="20" height="6" rx="2"/>
  <rect x="17" y="62" width="10" height="14" rx="2"/>
  <!-- Helmet (right) -->
  <path d="M52 20 C52 6, 90 6, 90 20 L90 52 C90 52, 86 48, 86 44 L86 58 C86 70, 56 70, 56 58 L56 44 C56 48, 52 52, 52 52 Z"/>
  <!-- Helmet visor slit -->
  <rect x="58" y="38" width="26" height="6" rx="2" fill="none" stroke="currentColor" stroke-width="0"/>
  <!-- Helmet T-slit -->
  <rect x="68" y="30" width="6" height="24" rx="1" fill="#000" opacity="0.3"/>
  <rect x="58" y="38" width="26" height="5" rx="1" fill="#000" opacity="0.3"/>
  <!-- Helmet crest/tail -->
  <path d="M62 76 C62 72, 80 72, 80 76 L80 82 C80 86, 62 86, 62 82 Z"/>
</svg>
